<mxfile host="app.diagrams.net" modified="2023-12-12T11:21:28.003Z" agent="Mozilla/5.0 (Macintosh; Intel Mac OS X 10_15_7) AppleWebKit/605.1.15 (KHTML, like Gecko) Version/16.6 Safari/605.1.15" version="22.1.4" etag="cYBAcf9u11W9L5WNSYhL" type="github">
  <diagram name="Page-1" id="R2Po7DGVDX1RJsuGb5wT">
    <mxGraphModel>
      <root>
        <mxCell id="0" />
        <mxCell id="1" parent="0" />
      </root>
    </mxGraphModel>
  </diagram>
</mxfile>
